<svg width="80" height="80" viewBox="0 0 80 80" fill="none" xmlns="http://www.w3.org/2000/svg">
<rect width="80" height="80" rx="16" fill="#1E1E1E"/>
<path d="M52.1867 64.7559C53.0081 64.7559 53.2532 65.7688 52.4947 66.084C48.8726 67.5753 44.6942 68.3213 39.9595 68.3213C35.9567 68.3213 32.4052 67.8588 29.3047 66.9344C27.8353 66.4964 28.2285 64.7559 29.7617 64.7559H52.1867Z" fill="#24CB71"/>
<path d="M35.2652 56.7559C35.4288 56.7559 35.591 56.7835 35.7471 56.8323C36.996 57.2233 38.4118 57.4189 39.9947 57.4189C41.6344 57.4189 43.0747 57.2226 44.3161 56.8331C44.4731 56.7838 44.6362 56.7559 44.8008 56.7559H60.5868C61.6778 56.7559 62.3904 57.8816 61.7881 58.7913C61.5696 59.1212 61.3364 59.445 61.0884 59.7627C60.0067 61.1639 58.715 62.4061 57.2122 63.4883C56.9663 63.6654 56.6694 63.7559 56.3664 63.7559H23.1094C22.7948 63.7559 22.4869 63.6587 22.2372 63.4673C20.6121 62.2212 19.1851 60.6409 18.0151 58.8683C17.3985 57.9341 18.1128 56.7559 19.232 56.7559H35.2652Z" fill="#00B6FF"/>
<path d="M28.8968 50.6397C29.594 50.6585 30.1723 51.161 30.3963 51.8216C30.9544 53.4679 31.9403 54.7658 33.354 55.7148C33.373 55.7273 33.3649 55.7559 33.3422 55.7559H17.2848C16.6925 55.7559 16.1513 55.4091 15.9346 54.8579C15.566 53.9204 15.2646 52.9622 15.0373 51.9986C14.8241 51.0953 15.5542 50.2787 16.482 50.3038L28.8968 50.6397Z" fill="#00B6FF"/>
<path d="M62.8115 48.7559C63.5835 48.7559 64.2369 49.3423 64.2478 50.1143C64.249 50.1934 64.2495 50.2728 64.2495 50.3525C64.2495 51.9045 64.0493 53.3733 63.6515 54.7599C63.4779 55.3649 62.9082 55.7559 62.2789 55.7559H51.2815C49.8577 55.7559 48.8518 53.3035 48.8726 51.8799C48.8512 50.6381 49.7372 48.7559 50.9791 48.7559H62.8115Z" fill="#00B6FF"/>
<path d="M60.3433 40.835C61.9141 42.2915 63.0103 44.0242 63.6332 46.0322C63.908 46.9181 63.1956 47.7559 62.2682 47.7559H46.3091C46.071 47.7559 45.8372 47.6974 45.6214 47.5967C44.6182 47.1286 43.3703 46.7449 41.8775 46.4463L32.4312 44.5645C30.3615 44.1505 28.4975 43.6184 26.839 42.9683C25.4714 42.4322 25.925 40.7559 27.3939 40.7559H60.1371C60.2132 40.7559 60.2875 40.7832 60.3433 40.835Z" fill="#874FFF"/>
<path d="M35.3926 32.7559C35.5731 32.7559 35.7518 32.7891 35.9218 32.8495C36.6979 33.1251 37.5938 33.3724 38.6099 33.5908L48.482 35.5801C50.9528 36.0875 53.1308 36.7387 55.0158 37.5338C56.353 38.0978 55.8823 39.7559 54.4311 39.7559H21.8768C21.5163 39.7559 21.1656 39.6284 20.9025 39.3819C20.777 39.2644 20.6544 39.1452 20.5347 39.0244C19.2507 37.7168 18.2868 36.2303 17.6421 34.565C17.2927 33.6627 18.0108 32.7559 18.9784 32.7559H35.3926Z" fill="#874FFF"/>
<path d="M29.4485 24.7559C30.7507 24.7559 31.6852 26.8199 31.6851 28.1221C31.6851 29.424 32.2061 30.5252 33.2476 31.4248C33.3735 31.5336 33.3008 31.7559 33.1344 31.7559H18.1567C17.4223 31.7559 16.7889 31.2243 16.7271 30.4924C16.6854 29.9981 16.6646 29.4922 16.6646 28.9746C16.6646 27.8995 16.7541 26.8702 16.9325 25.8866C17.0544 25.2152 17.6581 24.7559 18.3404 24.7559H29.4485Z" fill="#FF7237"/>
<path d="M61.0888 24.7559C61.7194 24.7559 62.2878 25.1489 62.4732 25.7516C62.6433 26.3047 62.7904 26.8653 62.9138 27.4311C63.1069 28.3167 62.4038 29.1162 61.4973 29.1162H50.3864C49.6714 29.1162 49.0724 28.6037 48.8157 27.9364C48.5376 27.2137 48.1426 26.5418 47.6304 25.9209C47.2864 25.4935 47.5629 24.7559 48.1116 24.7559H61.0888Z" fill="#FF7237"/>
<path d="M56.0262 16.7559C56.3661 16.7559 56.6977 16.8694 56.9562 17.0902C58.4694 18.3833 59.7398 19.9654 60.741 21.7243C61.2728 22.6585 60.553 23.7559 59.478 23.7559H45.1765C44.9566 23.7559 44.7415 23.7016 44.5406 23.6123C43.2859 23.0205 41.7826 22.7246 40.0308 22.7246C38.2203 22.7246 36.6291 23.0222 35.2565 23.6156C35.0516 23.7042 34.8319 23.7559 34.6086 23.7559H19.5804C18.5524 23.7559 17.8323 22.7424 18.3056 21.8299C18.6506 21.1648 19.0503 20.5277 19.5054 19.9189C20.3019 18.8668 21.2326 17.9166 22.2949 17.065C22.5496 16.8607 22.8686 16.7559 23.1951 16.7559H56.0262Z" fill="#FF7237"/>
<path d="M39.7818 12C43.9132 12 47.5165 12.5242 50.592 13.5718C52.0066 14.0537 51.5776 15.7559 50.0833 15.7559H27.9694C26.8817 15.7559 26.5551 14.4612 27.5659 14.0596C31.046 12.6865 35.1181 12 39.7818 12Z" fill="#FF3737"/>
</svg>
