<svg width="81" height="81" viewBox="0 0 81 81" fill="none" xmlns="http://www.w3.org/2000/svg">
<rect x="0.25" y="0.25" width="80.5" height="80.5" rx="16.25" fill="#1E1E1E" fill-opacity="0.4"/>
<rect x="0.25" y="0.25" width="80.5" height="80.5" rx="16.25" stroke="#F5F5F5" stroke-width="0.5"/>
<path d="M52.6867 65.2559C53.5081 65.2559 53.7532 66.2688 52.9947 66.584C49.3726 68.0753 45.1942 68.8213 40.4595 68.8213C36.4567 68.8213 32.9052 68.3588 29.8047 67.4344C28.3353 66.9964 28.7285 65.2559 30.2617 65.2559H52.6867Z" fill="#24CB71"/>
<path d="M35.7652 57.2559C35.9288 57.2559 36.091 57.2835 36.2471 57.3323C37.496 57.7233 38.9118 57.9189 40.4947 57.9189C42.1344 57.9189 43.5747 57.7226 44.8161 57.3331C44.9731 57.2838 45.1362 57.2559 45.3008 57.2559H61.0868C62.1778 57.2559 62.8904 58.3816 62.2881 59.2913C62.0696 59.6212 61.8364 59.945 61.5884 60.2627C60.5067 61.6639 59.215 62.9061 57.7122 63.9883C57.4663 64.1654 57.1694 64.2559 56.8664 64.2559H23.6094C23.2948 64.2559 22.9869 64.1587 22.7372 63.9673C21.1121 62.7212 19.6851 61.1409 18.5151 59.3683C17.8985 58.4341 18.6128 57.2559 19.732 57.2559H35.7652Z" fill="#00B6FF"/>
<path d="M29.3968 51.1397C30.094 51.1585 30.6723 51.661 30.8963 52.3216C31.4544 53.9679 32.4403 55.2658 33.854 56.2148C33.873 56.2273 33.8649 56.2559 33.8422 56.2559H17.7848C17.1925 56.2559 16.6513 55.9091 16.4346 55.3579C16.066 54.4204 15.7646 53.4622 15.5373 52.4986C15.3241 51.5953 16.0542 50.7787 16.982 50.8038L29.3968 51.1397Z" fill="#00B6FF"/>
<path d="M63.3115 49.2559C64.0835 49.2559 64.7369 49.8423 64.7478 50.6143C64.749 50.6934 64.7495 50.7728 64.7495 50.8525C64.7495 52.4045 64.5493 53.8733 64.1515 55.2599C63.9779 55.8649 63.4082 56.2559 62.7789 56.2559H51.7815C50.3577 56.2559 49.3518 53.8035 49.3726 52.3799C49.3512 51.1381 50.2372 49.2559 51.4791 49.2559H63.3115Z" fill="#00B6FF"/>
<path d="M60.8433 41.335C62.4141 42.7915 63.5103 44.5242 64.1332 46.5322C64.408 47.4181 63.6956 48.2559 62.7682 48.2559H46.8091C46.571 48.2559 46.3372 48.1974 46.1214 48.0967C45.1182 47.6286 43.8703 47.2449 42.3775 46.9463L32.9312 45.0645C30.8615 44.6505 28.9975 44.1184 27.339 43.4683C25.9714 42.9322 26.425 41.2559 27.8939 41.2559H60.6371C60.7132 41.2559 60.7875 41.2832 60.8433 41.335Z" fill="#874FFF"/>
<path d="M35.8926 33.2559C36.0731 33.2559 36.2518 33.2891 36.4218 33.3495C37.1979 33.6251 38.0938 33.8724 39.1099 34.0908L48.982 36.0801C51.4528 36.5875 53.6308 37.2387 55.5158 38.0338C56.853 38.5978 56.3823 40.2559 54.9311 40.2559H22.3768C22.0163 40.2559 21.6656 40.1284 21.4025 39.8819C21.277 39.7644 21.1544 39.6452 21.0347 39.5244C19.7507 38.2168 18.7868 36.7303 18.1421 35.065C17.7927 34.1627 18.5108 33.2559 19.4784 33.2559H35.8926Z" fill="#874FFF"/>
<path d="M29.9485 25.2559C31.2507 25.2559 32.1852 27.3199 32.1851 28.6221C32.1851 29.924 32.7061 31.0252 33.7476 31.9248C33.8735 32.0336 33.8008 32.2559 33.6344 32.2559H18.6567C17.9223 32.2559 17.2889 31.7243 17.2271 30.9924C17.1854 30.4981 17.1646 29.9922 17.1646 29.4746C17.1646 28.3995 17.2541 27.3702 17.4325 26.3866C17.5544 25.7152 18.1581 25.2559 18.8404 25.2559H29.9485Z" fill="#FF7237"/>
<path d="M61.5888 25.2559C62.2194 25.2559 62.7878 25.6489 62.9732 26.2516C63.1433 26.8047 63.2904 27.3653 63.4138 27.9311C63.6069 28.8167 62.9038 29.6162 61.9973 29.6162H50.8864C50.1714 29.6162 49.5724 29.1037 49.3157 28.4364C49.0376 27.7137 48.6426 27.0418 48.1304 26.4209C47.7864 25.9935 48.0629 25.2559 48.6116 25.2559H61.5888Z" fill="#FF7237"/>
<path d="M56.5262 17.2559C56.8661 17.2559 57.1977 17.3694 57.4562 17.5902C58.9694 18.8833 60.2398 20.4654 61.241 22.2243C61.7728 23.1585 61.053 24.2559 59.978 24.2559H45.6765C45.4566 24.2559 45.2415 24.2016 45.0406 24.1123C43.7859 23.5205 42.2826 23.2246 40.5308 23.2246C38.7203 23.2246 37.1291 23.5222 35.7565 24.1156C35.5516 24.2042 35.3319 24.2559 35.1086 24.2559H20.0804C19.0524 24.2559 18.3323 23.2424 18.8056 22.3299C19.1506 21.6648 19.5503 21.0277 20.0054 20.4189C20.8019 19.3668 21.7326 18.4166 22.7949 17.565C23.0496 17.3607 23.3686 17.2559 23.6951 17.2559H56.5262Z" fill="#FF7237"/>
<path d="M40.2818 12.5C44.4132 12.5 48.0165 13.0242 51.092 14.0718C52.5066 14.5537 52.0776 16.2559 50.5833 16.2559H28.4694C27.3817 16.2559 27.0551 14.9612 28.0659 14.5596C31.546 13.1865 35.6181 12.5 40.2818 12.5Z" fill="#FF3737"/>
</svg>
